<svg version="1.2" xmlns="http://www.w3.org/2000/svg" viewBox="0 0 2903 3000" width="2903" height="3000"><style>.a{fill:#231f20}</style><path class="a" d="m2666.3 556.9c41.1-20.7 82.1-51.1 118.8-87.7 112.7-112.8 142.1-240.6 97.9-284.9-22.2-22.2-63.7-26.3-113.8-11.2-57 17.1-117.8 55.8-171.1 109.1-36.6 36.6-66.9 77.7-87.7 118.8-38.1 75.1-80.9 137.3-130.8 189.8l96.9 96.9c52.5-49.9 114.7-92.8 189.8-130.8z"/><path class="a" d="m2554.9 2784c24.8 27.2 59.7 42.7 98.2 43.4 45 1 89.8-17.6 123.5-51.2 33.8-33.9 52.4-78.9 51.2-123.9-0.9-38.7-16.4-73.6-43.8-98.2l-836.5-754.7-151.4 151.5z"/><path class="a" d="m253.6 87.1c6.2 0.5 12.5 1.1 19 2.1 5.2 0.6 10.7 1.4 16.2 2.2 5.5 0.7 11.2 1.5 16.8 2.7 5.1 0.8 10.2 1.8 15.5 2.7 5.7 1 11.3 2.2 16.8 3.6 13.1 2.5 26 5.6 39.1 9.4q8.6 2 17.1 4.7c9 2.5 17.8 5.2 26.8 8.2 6.2 1.9 12.5 4.1 18.8 6.2 1.3 0.6 2.9 1 4.5 1.6 6 2.1 12.1 4.5 18.2 6.8 9 3.4 18 6.9 27 10.8q10.8 4.4 21.7 9.4c5.7 2.5 11.5 5.3 17.2 8 4.7 2.2 9.4 4.3 14.1 6.9 7.4 3.5 14.9 7.2 22.1 11.1 5.1 2.6 10 5.3 15.1 8 6.2 3.4 12.3 6.9 18.4 10.4 67.7 39 132.4 86.7 192.1 142.5 3.7 3.3 7.4 6.8 11.2 10.3 3.3 3.4 6.6 6.5 9.9 9.8 25.1 24.7 49.2 50.7 71.9 77.9 121.7 145.8 227.5 300.4 314.4 459.2 10 18.4 19.8 36.8 29.4 55.4 9.5 18.4 18.9 37 27.9 55.8 7.7 15.4 15.1 31.1 22.1 46.7 4.3 8.9 8.5 17.9 12.2 26.9 1.5 2.7 2.7 5.4 3.9 8.3l126.8-126.8c-31.5-97.6-70.9-193.9-117.8-287.8-71.4-141.8-159.5-277.6-261.8-403-132.9-163.2-327.4-266.6-520.3-276.3-118.6-6.1-228.2 23.1-316.4 83.1 11.7 0.2 23.5 1 35.2 2 4.9 0.2 9.8 0.6 14.9 1.2z"/><path class="a" d="m277.4 1039.8c126.3 102.9 262.1 190.8 403.3 261.6 93.7 46.9 190 86.3 287.8 117.8l126.6-126.6c-5.3-2.4-10.5-4.7-15.8-7.2-4.9-2.2-9.8-4.3-14.7-6.7-12.3-5.7-24.4-11.3-36.7-17.4-42.1-20-84.2-41.5-125.7-64.2-158.9-86.9-313.4-192.7-459.4-314.6-61.4-51.3-116.2-108.4-163.2-169.7-5.3-6.8-10.4-13.7-15.5-20.5-12.1-16.5-23.6-33.3-34.6-50.3-4.1-6.3-8.2-12.7-12.1-19.2-4.3-7-8.6-14.1-12.5-21.1-3.2-5.3-6.3-10.4-9-15.7-3.6-6.2-6.9-12.3-10.2-18.6-6.9-13.1-13.5-26.2-19.8-39.5-2.7-5.7-5.5-11.3-8-17.2l-8.2-18.8c-2.6-6.1-4.9-12.1-7.5-18.2-2.7-7-5.4-14.1-8-21.1-2.9-7.7-5.5-15.3-8-22.7-2.2-6.5-4.3-12.7-6.3-19.2-1.7-5.7-3.5-11.3-5.1-17-1.7-5.3-3.1-10.8-4.5-16.3-1.5-5.6-3.1-11.5-4.5-17.4-1.5-6.6-3.1-13.5-4.7-20.1-0.1-0.6-0.1-1.2-0.3-1.8-1.6-7.4-3-14.7-4.3-21.9-1.4-7.6-2.6-15.1-4-22.5v-1c-1.1-7.2-2.1-14.7-3.1-22.1-0.8-7.4-1.6-15.1-2.3-22.5-1.6-14.9-2.4-29.9-2.8-44.8-59.9 88-89.2 197.6-83.1 316.2 9.9 192.9 113.1 387.4 276.2 520.3z"/><path class="a" d="m146.2 251.2c0.5 7.3 1.5 14.3 2.5 21.5 1 7.3 2 14.5 3.3 21.8 2.2 12.7 4.5 25.2 7.5 37.9 0.7 3.7 1.5 7.3 2.5 11q2.1 8.2 4.1 16.4c5.9 21.7 12.5 43.5 20.2 65 9.6 27 20.9 53.8 33.4 80.4 8.4 17.6 17.6 35.2 27.2 52.6 4.9 8.7 10 17.3 15.1 25.9 10.4 17.2 21.3 34.2 32.9 50.8 23.1 33.5 48.7 66.2 76.3 97.3 11.1 12.3 22.5 24.7 34.4 36.6 23.5 24.1 48.5 47.1 74.8 69.1 143 119.3 294.4 223 450 308.1 11.6 6.3 23.1 12.6 34.6 18.4 6.7 3.8 13.3 7.1 19.8 10.4 9 4.7 18.2 9.4 27.2 13.9 9.2 4.7 18.2 9.2 27.4 13.5 1 0.6 2.1 1.2 3.1 1.6 10.6 5.1 21 10.1 31.5 15 21.9 10.2 43.8 20.2 65.7 29.5l108.6-108.6c0-0.4-0.1-0.7-0.3-1.1q-7.1-16.4-14.7-32.9c-3.7-8.8-7.8-17.6-11.9-26.2q-2.7-6.1-5.9-12.3-9.7-20.9-20-41.7c-7.6-15.6-15.6-31.5-23.8-47.1-8.4-16.1-16.9-32.1-25.7-48.2-85.1-155.5-188.8-306.8-307.9-449.8-22-26.3-45.1-51.1-69.1-74.8q-8.8-8.8-18.2-17.6c-30.7-28.6-62.8-55-95.9-79-13.3-9.8-26.6-19-40.1-27.8-11.2-7.3-22.1-14.1-33.5-20.8-54.2-32.5-110.3-58.7-167.1-77.8-3.7-1.4-7.4-2.8-11.1-3.8-72.2-23.6-145-36-215.9-36-6.8 0-13.7 0.2-20.5 0.4-7.4 0.2-14.9 0.6-22.1 1.2-0.6 7-1 14.3-1.4 21.3-0.2 7.7-0.4 15.3-0.4 22.7 0 6.7 0.2 13.5 0.4 20.2 0.4 14.3 1.4 28.5 3 43z"/><path class="a" d="m1318.2 1153.3c0-0.2-0.2-0.4-0.4-0.4l-22.5 22.5-97 97v0.2l-22.5 22.3-22.5 22.5-121.1 121.2-23.7 23.6-23.5 23.5q0 0-0.1 0l-699.3 699.3 596.7 596.7 832.6-832.6 230.7-230.7 739.2-739.3-596.6-596.6-601.7 601.7q0 0 0 0l-23.7 23.7-23.8 23.9-121 120.9c0.2 0.2 0.2 0.4 0.2 0.6z"/><path class="a" d="m304.2 2607.2c-41.1 20.8-82.2 51.1-118.8 87.7-112.8 112.8-142.1 240.7-97.9 284.9 22.2 22.2 63.6 26.3 113.7 11.3 57.1-17.1 117.9-55.9 171.2-109.2 36.6-36.6 66.9-77.7 87.7-118.8 38-75 80.9-137.3 130.8-189.8l-96.9-96.9c-52.5 49.9-114.8 92.8-189.8 130.8z"/></svg>