<svg version="1.2" xmlns="http://www.w3.org/2000/svg" viewBox="0 0 2186 2592" width="2186" height="2592"><style></style><path fill-rule="evenodd" d="m2185.2 1093v1498.4h-2184.4v-1498.4c0-602.4 490-1092.4 1092.4-1092.4 602 0 1092 490 1092 1092.4zm-1041.4-932.1v565.7c242.3 25.1 432.3 231.1 432.3 480.2v27h450.2v-140.8c0-497.9-391.4-905.5-882.5-932.1zm-459.3 1646.8h358.1v-443.9h-358.1zm-74.2 0v-443.9h-450.3v443.9zm891.6-600.9c0-208.2-156.6-380.6-358.1-405.7v432.7h358.1zm-459.3-405.7c-201.5 25.1-358.1 197.4-358.1 405.7v27h358.1zm-358.1 1100.6v530.4h358.1v-530.4zm817.4 530.4v-530.4h-358.1v530.4zm0-624.5v-443.9h-358.1v443.9zm74.2 0h450.2v-443.9h-450.2zm-1416.1-715.1v140.9h450.3v-27c0-249.1 189.6-454.8 432.3-480.3v-565.2c-491.1 26.6-882.6 434.1-882.6 931.6zm0 1339.6h450.3v-530.4h-450.3zm1866.3 0v-530.5h-450.2v530.5z"/></svg>