<svg version="1.2" xmlns="http://www.w3.org/2000/svg" viewBox="0 0 512 326" width="512" height="326"><style>.a{fill:#f5a81e}</style><filter id="f0"><feFlood flood-color="#f5a81e" flood-opacity="1" /><feBlend mode="normal" in2="SourceGraphic"/><feComposite in2="SourceAlpha" operator="in" /></filter><g filter="url(#f0)"><path fill-rule="evenodd" class="a" d="m511.1 126.7c-0.1 8.4-3.6 16-9.2 21.4-5.6 5.5-13.2 8.8-21.6 8.7l-59.3-0.7h-6.2l0.1-6.2 0.5-48.6 0.1-6.2h6.2l59.3 0.7c8.4 0.1 15.9 3.6 21.4 9.2 5.5 5.6 8.8 13.3 8.7 21.7zm-12.4-0.2c0.1-4.9-1.9-9.5-5.2-12.8-3.2-3.3-7.7-5.4-12.7-5.5l-53.1-0.6-0.4 36.2 53.1 0.6c5 0.1 9.5-1.9 12.9-5.1 3.3-3.3 5.4-7.8 5.4-12.8z"/><path fill-rule="evenodd" class="a" d="m0.5 120.8c0.1-8.4 3.6-16 9.2-21.5 5.6-5.4 13.3-8.8 21.7-8.7l59.2 0.7 6.2 0.1v6.2l-0.6 48.6-0.1 6.2-6.2-0.1-59.2-0.7c-8.4-0.1-16-3.6-21.5-9.2-5.4-5.6-8.8-13.2-8.7-21.6zm12.4 0.1c-0.1 5 1.9 9.5 5.2 12.9 3.2 3.3 7.7 5.4 12.7 5.4l53.1 0.6 0.4-36.2-53.1-0.6c-5-0.1-9.5 1.9-12.8 5.2-3.4 3.2-5.4 7.7-5.5 12.7z"/><path fill-rule="evenodd" class="a" d="m215.7 0.6l83.1 1c10.1 0.1 19.2 4.3 25.8 11.1 6.6 6.7 10.6 16 10.5 26.1l-0.3 30.6-0.1 6.2-6.2-0.1-144.2-1.7h-6.2v-6.2l0.4-30.6c0.1-10.1 4.4-19.3 11.1-25.9 6.7-6.6 16-10.6 26.1-10.5zm82.9 13.4l-83-1c-6.7-0.1-12.9 2.6-17.3 7-4.5 4.4-7.3 10.4-7.4 17.1l-0.3 24.4 131.8 1.6 0.3-24.4c0.1-6.7-2.6-12.9-6.9-17.4-4.4-4.4-10.5-7.2-17.2-7.3z"/><path class="a" d="m431.7 69.7c-28-10.9-95.7-19.1-175-20.1-79.3-0.9-147.3 5.8-175.5 16l-12.1-0.1c-3.6 0-6.6 2.9-6.7 6.5 0 3.6 2.9 6.6 6.5 6.6l374.8 4.4c3.6 0 6.6-2.9 6.6-6.5 0.1-3.6-2.8-6.6-6.4-6.7z"/><path class="a" d="m74 85.6l364.4 4.2-2.3 204.9c-0.2 17.1-14.4 30.9-31.5 30.7l-306.5-3.5c-14.8-0.2-26.7-12.4-26.5-27.1z"/></g></svg>