<svg version="1.2" xmlns="http://www.w3.org/2000/svg" viewBox="0 0 106 107" width="106" height="107"><style>.a{fill:#f5a81e}</style><path fill-rule="evenodd" class="a" d="m105.7 53.4c0 29.1-23.7 52.7-52.8 52.7-29.1 0-52.7-23.6-52.7-52.7 0-29.1 23.6-52.7 52.7-52.7 29.1 0 52.8 23.6 52.8 52.7zm-6.3 0c0-25.6-20.8-46.5-46.5-46.5-25.6 0-46.4 20.9-46.4 46.5 0 25.6 20.8 46.5 46.4 46.5 25.7 0 46.5-20.9 46.5-46.5z"/><path class="a" d="m65.3 36.7c-1.1-1.4-3-1.6-4.4-0.6-1.4 1.1-1.7 3-0.6 4.4l7.4 9.8h-38.1c-1.8 0-3.2 1.4-3.2 3.1 0 1.7 1.4 3.1 3.2 3.1h38.1l-7.4 9.8c-1.1 1.4-0.8 3.3 0.6 4.4 0.5 0.4 1.2 0.6 1.9 0.6 0.9 0 1.8-0.4 2.5-1.2l11.2-14.8c0.8-1.1 0.8-2.7 0-3.8z"/></svg>