<svg version="1.2" xmlns="http://www.w3.org/2000/svg" viewBox="0 0 1274 436" width="1274" height="436"><style></style><filter id="f0"><feFlood flood-color="#000000" flood-opacity="1" /><feBlend mode="normal" in2="SourceGraphic"/><feComposite in2="SourceAlpha" operator="in" /></filter><g filter="url(#f0)"><path  d="m846.1 56.7h-418.2l146 46.9-179.4 332h25.9l216.6-311.7 216.6 311.7h25.9l-179.4-332z"/><path  d="m949.6 0.8h-625.2c-1.7 0-3.1 1.4-3.1 3.1v43.1c0 1.7 1.4 3.1 3.1 3.1h625.2c1.7 0 3.1-1.4 3.1-3.1v-43.1c0-1.7-1.4-3.1-3.1-3.1z"/></g><filter id="f1"><feFlood flood-color="#000000" flood-opacity="1" /><feBlend mode="normal" in2="SourceGraphic"/><feComposite in2="SourceAlpha" operator="in" /></filter><g filter="url(#f1)"><path  d="m214.1 202.9l64.5-20.8c-28.9 5.9-67 9.4-108.8 9.4-41.7 0-79.8-3.5-108.8-9.4l64.6 20.8-125.8 232.7h18.2l151.8-218.5 151.9 218.5h18.1z"/><path  d="m169.8 186c90.6 0 164-16.7 164-37.3 0-20.6-73.4-37.3-164-37.3-90.6 0-164 16.7-164 37.3 0 20.6 73.4 37.3 164 37.3z"/></g><filter id="f2"><feFlood flood-color="#000000" flood-opacity="1" /><feBlend mode="normal" in2="SourceGraphic"/><feComposite in2="SourceAlpha" operator="in" /></filter><g filter="url(#f2)"><path  d="m1148.4 202.9l64.6-20.8c-29 5.9-67.1 9.4-108.8 9.4-41.8 0-79.9-3.5-108.8-9.4l64.5 20.8-125.7 232.7h18.1l151.9-218.5 151.8 218.5h18.2z"/><path  d="m1104.2 186c90.6 0 164-16.7 164-37.3 0-20.6-73.4-37.3-164-37.3-90.6 0-164 16.7-164 37.3 0 20.6 73.4 37.3 164 37.3z"/></g></svg>