<svg version="1.2" xmlns="http://www.w3.org/2000/svg" viewBox="0 0 823 821" width="823" height="821"><style>.a{fill:#f5a81e}</style><path class="a" d="m432 57c1.4 47-4.1 96.6-18.4 141.6q-1 2.9-1.9 5.9c-0.4 1.4-0.4 1.4-0.9 2.8q-1.4 4.6-2.6 9.1c-4.8 17.1-11.7 33.5-18.4 49.8-0.7 1.8-0.7 1.8-1.5 3.7-3.1 7.5-6.6 14.8-10.3 22.1q-1 2-1.9 3.9-3.1 6.1-6.1 12.1-0.6 1.2-1.2 2.4c-5.5 10.8-11.3 21.3-17.5 31.7-0.9 1.5-0.9 1.5-1.8 3-4.3 7.1-8.9 14-13.5 20.9q-1.3 2-2.7 4.1c-6.3 9.5-12.9 18.7-19.7 27.8q-2.3 3-4.5 6c-5.8 7.9-11.8 15.6-18.1 23.1-0.6 0.8-0.6 0.8-1.3 1.6-5.4 6.5-11 12.9-16.6 19.1q-2.9 3.2-5.7 6.4c-2.9 3.4-6 6.5-9.2 9.6-1.8 1.9-3.5 3.8-5.2 5.8-4.7 5.4-9.7 10.4-14.8 15.4q-2.5 2.5-5 5c-5 5-10 10-15.5 14.6-2.7 2.4-5.4 4.9-8 7.4-4.8 4.4-9.7 8.6-14.8 12.7-4.1 3.4-8.1 6.8-12 10.2q-0.9 0.8-1.7 1.5-0.8 0.6-1.5 1.3c-0.9 0.7-0.9 0.7-1.7 1.4q-1 1-2 2.1c-4.2 2.7-7.4 2.4-12.3 2.3q-1.4-0.1-2.8-0.1-4.6 0-9.2-0.1-3.2-0.1-6.3-0.1-8.4-0.1-16.8-0.3-8.5-0.1-17.1-0.2-16.7-0.3-33.5-0.6-0.1-1.3-0.2-2.7-0.1-1.7-0.2-3.5c-0.1-1.8-0.1-1.8-0.2-3.6-0.6-5.3-2.4-8.5-6.6-12-3.7-1.7-3.7-1.7-11.8-3.2 0-151.5 0-302.9 0-459 104.6 0 209.2 0 317 0-2.3 41.9-6.3 82.5-17 123-0.3 1.4-0.3 1.4-0.7 2.7-6.6 25.5-15.1 50.8-25.4 75.1q-1.5 3.5-2.9 7.1c-11.2 27-24.6 53.2-40 78.1q-0.5 0.8-1 1.7c-6.8 10.9-13.8 21.7-21 32.3q-0.7 1.1-1.5 2.2c-5.9 8.8-12 17.4-18.5 25.8q-1.2 1.6-2.4 3.2c-5.1 6.7-10.4 13.2-15.9 19.7-2.5 2.9-4.9 5.8-7.3 8.8-5.2 6.4-10.8 12.5-16.4 18.6q-0.8 0.8-1.5 1.6-1.5 1.6-3 3.3c-2.4 2.1-2.4 2.1-3.5 4.8q7.5-7.5 15-14.9 2.5-2.6 5.1-5.1 3.7-3.7 7.3-7.3 1.2-1.2 2.3-2.3c4.1-4.1 8-8.3 11.8-12.7 2.2-2.5 4.6-5 6.9-7.5 5.1-5.6 9.9-11.3 14.6-17.2q1.5-1.8 2.9-3.6c6.2-7.7 12.2-15.5 18.1-23.4 1-1.4 1-1.4 2-2.7 7.6-10.3 14.8-20.8 21.5-31.6 2.2-3.6 4.4-7.1 6.7-10.5 2.7-3.9 4.9-7.9 7.1-12.1 1.6-2.8 3.2-5.6 4.8-8.4 21.6-37.5 38.2-79.8 49.1-121.5q0.8-3.2 1.7-6.4c9.7-36.3 15.6-73.6 19.4-111 0.3-3.1 0.7-5.8 1.7-8.8q6.5-0.5 12.9-1 1.8-0.1 3.7-0.3c6.5-0.5 12.9-0.8 19.4-0.7z"/><path fill-rule="evenodd" class="a" d="m2 0c270.9 0 541.9 0 821 0 0 270.9 0 541.9 0 821-271.3 0-542.5 0-822 0 0-132.8 0-265.7-0.1-402.5 0-42 0-84 0-127.3 0-51.1 0-51.1 0-75q0-26.8 0-53.6 0-27.3 0-54.7 0-16.2 0-32.5 0-10.7 0-21.4 0-6.1 0-12.2 0-5.6 0-11.2 0-2.9 0-5.9c0-6 0.3-11.7 1.1-17.7 0-2.3 0-4.6 0-7zm25 25c0 254.1 0 508.2 0 770 300.2 0.8 300.2 0.8 600.4 1.1 56-0.1 111.9-0.1 169.6-0.1 0-253.8 0-507.5 0-769-127.8-0.9-127.8-0.9-255.6-1.3q-15.8 0-31.5 0-1.1 0-2.1-0.1-4.1 0-8.3 0-37 0-74.1-0.1-34.3-0.1-68.7-0.1-1 0-2.1 0-5.4 0-10.7-0.1-1.1 0-2.2 0-2.1 0-4.3 0-34.6 0-69.3-0.1-9.9 0-19.9 0-20.7-0.1-41.5-0.1-8.5 0-17 0c-54.2-0.1-108.5-0.1-162.7-0.1z"/><path class="a" d="m347.8 441.4q2.7 0 5.4 0c4.9 0 9.8 0 14.8 0.1 5.3 0 10.6 0 15.9 0q13.8 0 27.6 0.1 20 0.2 40 0.2 32.4 0 64.8 0.2 31.4 0.2 62.9 0.3c1.9 0 1.9 0 3.9 0q9.7 0 19.5 0c53.8 0.2 107.6 0.4 161.4 0.7 0 41.9 0 83.8 0 127-61.8 0.3-61.8 0.3-81.2 0.3-1 0-1 0-2 0q-34.6 0.2-69.1 0.3-1.1 0-2.3 0-24.5 0-49 0.1-12 0-24 0-1.2 0-2.4 0-38.8 0.1-77.5 0.3-39.8 0.2-79.6 0.2-5.7 0-11.3 0c-1.1 0-1.1 0-2.2 0q-17.8 0.1-35.7 0.2-17.9 0.1-35.8 0.1-9.7 0-19.4 0-8.9 0.1-17.8 0.1-3.2 0-6.4 0c-15.7 0.3-15.7 0.3-20.2-3-3.5-3.4-5.9-7.3-8.1-11.6 2.9-3.7 5.7-6.5 9.3-9.4 3.9-3.1 7.6-6.3 11.1-9.9 1.6-1.7 3.3-3.2 5.1-4.8 9.9-8.5 19.3-17.6 28.5-26.8q1-1 2.1-2.1c5.6-5.5 10.8-11.4 15.7-17.5q1.1-1.2 2.2-2.5 1 0 2 0c0.3-0.8 0.3-0.8 0.7-1.6 1.8-3.3 4.3-5.8 6.9-8.5 3.8-4 7.5-8.1 11-12.4q1-1.2 2-2.5c2.5-3 2.5-3 4.6-6.3 7.4-10.7 14.1-11.6 26.6-11.3z"/><path class="a" d="m268 635c163.7 0 327.4 0 496 0 0 41.6 0 83.2 0 126-153.5 0-306.9 0-465 0-2-15-2-15-2.9-21.6-4.6-34.8-13.3-67.9-27.2-100.1-0.9-2.3-0.9-2.3-0.9-4.3z"/><path class="a" d="m439 250c107.2 0 214.5 0 325 0 0 42.2 0 84.5 0 128-127.7 0-255.4 0-387 0 1.5-3.7 2.7-6.4 4.8-9.7 0.9-1.3 0.9-1.3 1.7-2.6q0.9-1.4 1.7-2.8c4.2-6.6 8.2-13.2 11.6-20.4 1.2-2.5 2.5-4.7 4-7.1 3.9-6.3 6.9-13.1 10-19.8q2.6-5.4 5.3-10.7c8.9-17.7 15.9-36.3 22.9-54.9z"/><path class="a" d="m683.2 57.9q1.5 0 3.1 0 10.5 0 21 0 1.3 0 2.7 0.1 27 0 54 0c0 41.6 0 83.2 0 126-56.6-0.1-56.6-0.1-74.4-0.1-5.3 0-5.3 0-10.6 0q-3.5 0-7 0-5.4 0-10.7 0-1.6 0-3.2 0-1.4 0-2.9 0-1.3 0-2.6 0c-2.7 0.1-2.7 0.1-5.9 0.6-3.9 0.5-7.6 0.6-11.5 0.6-1.2 0-1.2 0-2.3 0q-3.8 0-7.6 0-2.7 0-5.4 0-7.4 0-14.8 0-7.7 0-15.4 0-14.6 0-29.2 0-16.6 0-33.2 0-34.1-0.1-68.3-0.1 0.5-2.9 1-5.8 0.2-1.6 0.5-3.2 0.9-5.1 1.9-10.3c5.4-28.8 8.7-57.5 9.2-86.9q0.1-2.9 0.1-5.8 0.2-7 0.3-14 23.5-0.3 47-0.5 1.8 0 3.7 0c53.5-0.5 107-0.6 160.5-0.6z"/><path class="a" d="m178.7 569.4c17 19.1 32.6 41.6 43.8 64.5q1.5 3 3 5.9c4 7.9 7.4 15.9 10.7 24.1q1.1 2.9 2.3 5.8c4.6 11.5 7.7 23.3 10.7 35.2q0.8 3 1.6 6.1c2 7.6 3.3 15.2 4.3 22.9q0.3 1.8 0.5 3.6c1.1 7.9 1.8 15.5 2.4 23.5-65.7 0-131.3 0-199 0 0-55.8 0-111.5 0-169 4.3-2.3 8.6-4.6 13-7 3.8-4.3 3.8-4.3 4.8-9 0.1-1 0.1-1 0.3-2.1 0.1-1.1 0.1-1.1 0.1-2.2 0.2-1.1 0.2-1.1 0.3-2.3q0.3-2.7 0.5-5.4 17.7-0.2 35.4-0.4 8.2-0.1 16.4-0.2 7.9-0.2 15.9-0.2 3-0.1 6-0.1 4.3-0.1 8.5-0.1 1.2 0 2.5-0.1c7.8 0 10.6 0.9 16 6.5z"/></svg>