<svg version="1.2" xmlns="http://www.w3.org/2000/svg" viewBox="0 0 2224 991" width="2224" height="991"><style>.a{fill:#f5a81e}</style><path fill-rule="evenodd" class="a" d="m12.5-0.1h129.1l11.7 11.8v23.4c0 7.9-7.9 11.8-23.5 11.8v23.4h1964.5v-23.4q-17.6 0-17.6-11.8v-23.4l11.7-11.8h123.1l11.8 11.8v23.4q0 11.8-17.6 11.8v891.3q17.6 0 17.6 11.7v29.3l-11.8 11.8h-123.1l-11.7-11.8v-29.3q0-11.7 17.6-11.7v-23.5h-1952.7l-11.8 11.8v11.7q23.5 0 23.5 11.7v29.3l-11.7 11.8h-129.1l-11.7-11.8v-29.3q0-11.7 23.5-11.7v-891.3q-23.5 0-23.5-11.8v-23.4zm2087.6 950v23.4h99.7v-23.4zm0-938.3v17.6h99.7v-17.6zm-11.8 586.4q-1.4 29.4-58.6 93.9l64.5 29.3v-123.2zm-64.5-304.9q64.5 68.9 64.5 99.7h5.9v-123.2zm-88 445.7v5.9h123.2v-5.9l-58.7-23.5zm58.7-422.2q-76.3 79.2-76.3 176 0 111.4 82.1 175.9 76.2-68.9 76.3-181.8 0-99.7-82.1-170.1zm-76.3-82.1v5.9l82.1 35.2q0-11.7 64.5-35.2v-5.9zm-5.8 551.3l11.7 17.5v47l-17.6 23.4v5.9h187.7v-93.8zm-11.8-680.3l23.5 35.2v46.9l-11.7 17.6h181.7v-99.7zm-93.8 721.3v11.7l23.5 23.5h35.2l23.4-23.5v-11.7q0-41-46.9-41-35.2 0-35.2 41zm0-674.4v11.8q0 41 46.9 41 25-7.3 35.2-29.3v-23.5q-14.7-29.3-46.9-29.3-23.5 8.8-35.2 29.3zm-11.7 346q22 35.2 52.8 35.2 24.9-7.3 35.2-29.3v-29.3c-5.9-15.7-19.6-23.5-41.1-23.5h-17.6q-29.3 16.1-29.3 46.9zm52.8 52.8h-11.8l-29.3-5.9q-11.7 67.5-76.2 140.8 67.4 35.2 88 35.2h64.5q82.1-14.7 82.1-35.2v-5.9c-22.5 0-49.9-46.9-82.1-140.7zm-117.3-252.2q70.3 77.7 70.3 134.9l47-5.9 41 11.7v-5.8q0-48.4 76.2-140.7-61.5-29.4-111.4-29.4-52.8 0-123.1 35.2zm-93.8 439.8v5.9h134.8v-5.9q-20.5 0-70.3-29.3-44 29.3-64.5 29.3zm58.6-410.5q-64.5 86.5-64.5 170.1c0 61.6 25.4 116.3 76.2 164.2q70.4-93.8 70.4-170.1 0-82.1-70.4-164.2zm-70.3-93.8v5.9c50.8 17.6 76.2 31.3 76.2 41q48.4-30.8 87.9-41v-5.9zm-11.7 551.2l11.7 52.8-23.4 41h187.6v-5.8q-17.6-20.5-17.6-41.1v-11.7l11.8-35.2zm-17.6-680.2q29.3 33.7 29.3 58.6l-11.7 41.1h170l-11.7-35.2v-11.7q0-17.6 23.5-52.8zm-88 721.3q0 35.1 35.2 35.2h23.4q23.5-8.8 23.5-41.1-7.4-35.2-52.8-35.2-29.3 8.8-29.3 41.1zm0-351.9v29.4q16.1 29.3 46.9 29.3 26.4-5.9 41.1-35.2-0.1-30.8-29.4-46.9h-17.6c-20.5 0-34.2 7.8-41 23.4zm0-322.5v23.5c9.8 19.5 25.4 29.3 46.9 29.3q24.9-7.3 35.2-29.3v-23.5q-14.7-29.3-46.9-29.3-23.5 8.8-35.2 29.3zm46.9 398.8h-11.7l-29.3-5.9q-0.1 67.4-76.3 146.6 54.3 29.3 88 29.3h52.8q52.7 0 93.8-41-70.4-71.8-70.4-140.8zm-117.3-263.9v11.8q76.2 83.5 76.3 134.9l29.3-5.9h5.9q30.7 0 52.7 17.6 0-60.1 76.3-146.6-51.4-29.3-123.2-41.1zm-82.1 451.6v5.8h105.6v-5.8l-52.8-23.5zm-17.6 46.9l11.7 35.2q0 35.2-23.4 58.6h170q-23.4-23.4-23.4-46.9v-11.7l11.7-35.2zm64.5-469.1q-76.2 95.3-76.2 175.9 0 102.6 87.9 175.9 70.4-77.7 70.4-181.8 0-95.2-82.1-170zm-76.2-82.1v5.9q24.9 0 76.2 35.1l70.4-41zm-5.9-129q29.3 29.3 29.3 64.5l-11.7 35.2h146.6l-11.7-35.2v-11.7q0-22 29.3-52.8zm-93.8 721.3q0 35.1 41 35.1v5.9q29.3 0 46.9-29.3v-23.5l-29.3-29.3h-11.7q-46.9 5.9-46.9 41.1zm0-668.5q0 46.9 52.8 46.9 24.9-7.3 35.1-29.3v-23.5q-14.6-29.3-46.9-29.3-35.2 13.2-41 35.2zm-17.6 322.5v17.6q20.5 35.2 46.9 35.2c23.5 0 37.1-15.7 41-47 0-23.4-13.7-35.1-41-35.1h-17.6zm52.8 70.3h-29.4l-5.8-5.8h-5.9q-13.2 67.4-76.2 140.7 0 27.9 117.3 41.1 117.2-16.1 117.2-41.1-82.1-74.8-82-146.6zm-123.2-252.1q76.2 87.9 76.2 134.8l29.4-5.8h5.8l46.9 11.7c0-30.3 25.4-79.2 76.3-146.6q-61.6-29.3-111.4-29.3h-11.8q-32.2 0-111.4 35.2zm-87.9 439.8v5.8h123.1v-5.8l-64.5-23.5zm-11.7-263.9v41.1q0 46.9 64.5 146.6h5.8q35.2-11.8 76.3-129l-5.9-5.9v-5.9l5.9-29.3-5.9-29.3h5.9q0-33.7-64.5-134.9h-11.8q-70.3 85-70.3 146.6zm-11.8-240.4v5.9q27.9 0 82.1 41 67.4-41 88-41v-5.9zm0 551.2l11.7 46.9-23.4 46.9h205.2q-23.4-23.4-23.4-46.9v-11.7l11.7-35.2zm-17.6-680.2q29.3 35.2 29.3 64.5l-11.7 35.2h181.8v-5.9l-11.8-35.2v-5.8q0-22 29.4-52.8zm-88 703.7v29.3l23.5 23.4h35.1c15.7-5.8 23.5-19.5 23.5-41q-11.7-35.2-46.9-35.2-23.5 0-35.2 23.5zm0-334.3v29.3q11.7 22 35.2 29.4 52.8-10.3 52.8-47-7.4-23.4-29.4-35.1h-35.1zm0-322.6v23.5q11.7 22 35.1 29.3 46.9-4.4 47-46.9v-5.9q-14.7-29.3-47-29.3h-5.8zm-5.9 381.2q0 58.6-76.2 152.4 58.6 35.2 111.4 35.2h23.5q76.2 0 111.4-41-52.8-30.8-82.1-140.8l-35.2 11.8h-11.7q-19.1 0-41.1-17.6zm-76.2-222.8q70.4 68.9 70.3 134.8l47-17.6h5.8l46.9 11.8q5.9-58.7 76.3-140.8-64.6-29.3-123.2-35.2-77.7 0-123.1 47zm-93.8 428v5.9h129v-5.9q-22 0-64.5-29.3c-28.4 19.6-49.9 29.3-64.5 29.3zm64.5-410.5q-70.4 86.6-70.4 164.2 0 92.4 76.2 170.1 64.5-73.3 64.5-164.2v-5.9q0-104-70.3-164.2zm-82.1-93.8v5.9c26.4 5.9 53.7 19.5 82.1 41q45.4-29.3 87.9-41v-5.9zm-5.8 551.2l11.7 17.6v46.9l-23.5 29.4h193.5q-23.4-30.8-23.4-58.7l11.7-35.2zm-11.7-680.2l23.4 35.2v46.9l-11.7 17.6h170.1l-11.8-46.9 29.4-52.8zm-88 381.2q0 36.6 52.8 46.9 19 0 41-41.1-11.7-36.6-29.3-41h-17.6q-32.3 0-46.9 35.2zm-5.9 340.1v11.7l23.5 23.5h35.2l23.4-23.5v-23.4q-17.6-29.4-41-29.4-41.1 0-41.1 41.1zm0-674.4v23.5q11.7 22 35.2 29.3c20.5 0 36.2-9.8 46.9-29.3v-23.5q-14.7-29.3-46.9-29.3-23.5 8.8-35.2 29.3zm-64.5 146.6q67.4 71.9 76.3 140.8l46.9-11.8 41 5.9q4.4-57.2 70.4-134.9-77.7-35.2-123.2-35.2-67.4 0-111.4 35.2zm76.3 240.4q-0.1 61.6-82.1 152.5 49.8 29.4 117.2 35.2 54.3-4.4 123.2-35.2-76.3-99.7-76.2-146.6l-29.4 5.9h-17.6zm-170 199.4v5.8h123.1v-5.8q-22 0-64.5-23.5zm-5.8-504.3l70.3 41q0-11.7 76.2-35.2v-5.8zm-11.7 258q0 110 76.2 170c50.9-41 76.3-85.9 76.3-134.8v-70.4q0-57.1-70.4-134.9-82.1 63.1-82.1 170.1zm0 293.2l11.7 17.6v46.9l-17.5 23.5v5.8h164.1v-5.8q-17.5-20.5-17.5-41.1v-11.7l11.7-35.2zm-11.7-680.2l23.4 35.2v46.9l-11.7 17.6h152.5l-11.8-35.2v-11.7q0-20.6 23.5-52.8zm-93.8 721.3q0 35.1 35.1 35.1h23.5l23.4-23.4v-11.7q0-41.1-46.9-41.1-35.1 0-35.1 41.1zm0-674.4v23.4q11.7 22 35.1 29.4c20.6 0 36.2-9.8 46.9-29.4v-23.4q-14.6-29.3-46.9-29.3-23.4 8.8-35.1 29.3zm-5.9 346q11.7 35.1 46.9 35.1 41-11.7 41-46.9 0-35.1-41-35.1h-5.9q-41 0-41 46.9zm11.7 46.9c-19.5 64.5-46.9 113.4-82.1 146.6q58.6 29.3 88 29.3h58.6q45.5 0 82.1-35.2-76.2-73.3-76.2-140.7l-29.3 5.8h-29.4l-5.8-5.8zm-82.1-252.2q60.1 63.1 82.1 140.8l29.3-5.9 41.1 5.9q11.7-64.5 76.2-134.9-42.5-35.2-111.4-35.2-44 0-117.3 29.3zm-93.8 445.7v5.8h123.1v-5.8q-22 0-52.8-23.5zm0-504.3l58.7 35.2h11.7l64.5-29.3v-5.9zm-11.7 258v17.6q0 86.5 76.2 152.5 82.1-71.8 82.1-175.9c0-46.9-25.4-103.6-76.2-170.1q-82.1 66-82.1 175.9zm-23.5 293.2v93.9h187.7v-5.9q-17.6-20.5-17.6-41.1v-11.7l11.7-35.2zm0-193.5v129q64.5-20.5 70.4-35.2-58.7-52.7-64.5-93.8zm0-322.5v123.1h5.8q0-24.9 64.5-99.6zm0-152.5v88h181.8l-11.7-46.9q0-17.6 23.5-52.8h-181.8zm-82.1-41.1v850.3h52.8v-850.3zm-17.6 873.8v23.4h93.8v-23.4zm-5.9-938.3v17.6h99.7v-17.6zm2099.3 64.5v838.6l11.7 11.7h41.1v-850.3z"/></svg>